<?xml version="1.0" encoding="utf-8"?>
<!-- Generator: Adobe Illustrator 24.0.2, SVG Export Plug-In . SVG Version: 6.00 Build 0)  -->
<svg version="1.1" id="Warstwa_1" xmlns="http://www.w3.org/2000/svg" xmlns:xlink="http://www.w3.org/1999/xlink" x="0px" y="0px"
	 viewBox="0 0 430 430" style="enable-background:new 0 0 430 430;" xml:space="preserve">
<style type="text/css">
	.st0{fill:#EBE6EF;}
	.st1{opacity:0.5;}
	.st2{fill:#0e172c;}
	.st3{fill:#3A3347;}
	.st4{fill:#4BB3FD;}
	.st5{fill:#F24C00;}
	.st6{fill:#fec7d7;}
	.st7{fill:#2CA58D;}
	.st8{display:none;}
	.st9{display:inline;fill:none;stroke:#0e172c;stroke-width:7;stroke-linecap:round;stroke-linejoin:round;}
	.st10{display:none;fill:none;stroke:#0e172c;stroke-width:7;stroke-linecap:round;stroke-linejoin:round;stroke-miterlimit:10;}
	.st11{fill:#F9C9C0;}
	.st12{fill:#F28BA8;}
	.st13{fill:#646E78;}
	.st14{fill:#0e172c;}
	.st15{opacity:0.6;}
	.st16{opacity:0.7;}
	.st17{fill:#92140C;}
	.st18{opacity:0;}
	.st19{opacity:0.4;}
	.st20{opacity:0.8;}
	.st21{fill:none;}
	.st22{opacity:0.2;clip-path:url(#SVGID_2_);}
	.st23{opacity:0.2;clip-path:url(#SVGID_4_);}
	.st24{opacity:0.2;clip-path:url(#SVGID_6_);}
	.st25{opacity:0.2;clip-path:url(#SVGID_8_);}
	.st26{opacity:0.2;clip-path:url(#SVGID_10_);}
	.st27{opacity:0.2;clip-path:url(#SVGID_12_);}
	.st28{fill:#FFFFFF;}
</style>
<g>
	<path class="st2" d="M277,119.91h-7V92.15c0-8.82-7.18-16-16-16h-74.1c-8.82,0-16,7.18-16,16v27.76h-7V92.15
		c0-12.68,10.32-23,23-23H254c12.68,0,23,10.32,23,23V119.91z"/>
</g>
<g>
	<path class="st14" d="M332,113.55H98c-22.61,0-41,18.39-41,41v163.8c0,22.61,18.39,41,41,41h234c22.61,0,41-18.39,41-41v-163.8
		C373,131.94,354.61,113.55,332,113.55z"/>
</g>
<g class="st1">
	<path class="st14" d="M57,255.71v62.64c0,22.61,18.39,41,41,41h234c22.61,0,41-18.39,41-41v-62.64H57z"/>
</g>
<g>
	<path class="st6" d="M255.63,255.71H178.2v35.77c0,1.1,0.9,2,2,2h73.43c1.1,0,2-0.9,2-2V255.71z"/>
</g>
<g class="st1">
	<g>
		<path class="st6" d="M196.07,255.71H178.2v35.77c0,1.1,0.9,2,2,2h15.87V255.71z"/>
	</g>
</g>
</svg>
