<svg xmlns="http://www.w3.org/2000/svg" viewBox="0 0 430 430">
  <defs>
    <style>
      .cls-1 {
        isolation: isolate;
      }

      .cls-2 {
        fill: #fffffe;
      }

      .cls-3, .cls-4 {
        fill: #0e172c;
      }

      .cls-4 {
        mix-blend-mode: multiply;
        opacity: 0.5;
      }

      .cls-5 {
        fill: #121331;
      }
    </style>
  </defs>
  <g class="cls-1">
    <g id="Warstwa_1" data-name="Warstwa 1">
      <g>
        <g>
          <path class="cls-2" d="M210,299.1v53.37l39.68-26.68Z"/>
          <path class="cls-3" d="M335,376.62H111.68a21.77,21.77,0,0,1-21.77-21.77v-140H356.78v140A21.77,21.77,0,0,1,335,376.62Z"/>
          <path class="cls-4" d="M103.55,354.85v-140H89.91v140c0,12.52,10.45,21.77,20.53,21.77H120C110.9,376.62,103.55,366.87,103.55,354.85Z"/>
          <path class="cls-2" d="M114.68,267.92l18.26-53.06h50l-18.26,53.06Z"/>
          <path class="cls-2" d="M214.75,267.92,233,214.86h50l-18.26,53.06Z"/>
          <path class="cls-2" d="M314.83,267.92l18.26-53.06h23.69v53.06Z"/>
          <path class="cls-2" d="M210,299.1v53.37l39.68-26.68Z"/>
          <path class="cls-3" d="M327.36,93.09,89.9,214.86,75.62,187a21.77,21.77,0,0,1,9.44-29.3L283.79,55.81a21.77,21.77,0,0,1,29.3,9.44Z"/>
          <path class="cls-4" d="M101.93,208,87.65,180.17a21.77,21.77,0,0,1,5.43-26.64l-8,4.07a21.77,21.77,0,0,0-9.43,29.3L90,214.74l12.2-6.25"/>
          <path class="cls-2" d="M87.73,156.35l40.46,38.88,44.52-22.84-40.46-38.87Z"/>
          <path class="cls-2" d="M217.24,149.56l-40.46-38.87L221.3,87.86l40.46,38.87Z"/>
          <path class="cls-2" d="M265.83,65l40.46,38.88,21.07-10.81s-13.7-26.68-14.27-27.84a21.65,21.65,0,0,0-29.3-9.44Z"/>
        </g>
        <path class="cls-2" d="M210,299.1v53.37l39.68-26.68Z"/>
        <g>
          <path class="cls-5" d="M210,356a3.41,3.41,0,0,1-1.64-.41,3.52,3.52,0,0,1-1.86-3.09V299.1a3.51,3.51,0,0,1,5.46-2.91l39.68,26.69a3.51,3.51,0,0,1,0,5.81L212,355.38A3.55,3.55,0,0,1,210,356Zm3.5-50.3V345.9l29.91-20.11Z"/>
          <path class="cls-5" d="M356.78,211.36H104.4L329,96.2a3.48,3.48,0,0,0,1.74-2,3.54,3.54,0,0,0-.22-2.67L316.2,63.65a25.29,25.29,0,0,0-34-10.95L83.46,154.61a25.26,25.26,0,0,0-10.95,34l13.9,27.11V354.85a25.3,25.3,0,0,0,25.27,25.27H335a25.3,25.3,0,0,0,25.27-25.27v-140A3.5,3.5,0,0,0,356.78,211.36Zm-3.5,7v47H319.57l16.18-47Zm-24.93,0-16.18,47H269.53l16.19-47Zm-50,0-16.18,47H219.5l16.18-47Zm-50,0-16.19,47H169.46l16.18-47Zm-50,0-16.19,47H119.42l16.18-47Zm-50,0-16.18,47H93.41v-47ZM285.38,58.93A18.27,18.27,0,0,1,310,66.85l12.68,24.72-15.74,8.08L271.79,65.9ZM265.2,69.28,300.32,103l-37.93,19.46L227.27,88.73ZM220.68,92.11l35.12,33.75-37.94,19.45-35.12-33.75Zm-44.53,22.83,35.13,33.75-37.94,19.45L138.22,134.4Zm-44.52,22.83,35.12,33.75L128.81,191,93.69,157.23ZM78.74,185.42a18.26,18.26,0,0,1,7.92-24.58l.45-.23,35.12,33.74-30.81,15.8ZM335,373.12H111.68a18.29,18.29,0,0,1-18.27-18.27V272.37H353.28v82.48A18.29,18.29,0,0,1,335,373.12Z"/>
        </g>
      </g>
    </g>
  </g>
</svg>
